<svg width="15" height="16" viewBox="0 0 15 16" fill="none" xmlns="http://www.w3.org/2000/svg">
<g clip-path="url(#clip0_7623_4958)">
<path d="M14.9925 8.1497C14.9925 7.49419 14.9415 7.01584 14.8311 6.51978H7.64984V9.47843H11.8651C11.7801 10.2137 11.3212 11.321 10.3013 12.0651L10.287 12.1641L12.5576 13.9976L12.7149 14.0139C14.1596 12.6232 14.9925 10.5769 14.9925 8.1497Z" fill="#4285F4"/>
<path d="M7.64953 15.9451C9.71463 15.9451 11.4483 15.2364 12.7146 14.014L10.301 12.0651C9.65517 12.5346 8.7883 12.8623 7.64953 12.8623C5.6269 12.8623 3.91021 11.4716 3.29826 9.54932L3.20856 9.55726L0.847587 11.4618L0.816711 11.5513C2.07448 14.1556 4.65803 15.9451 7.64953 15.9451Z" fill="#34A853"/>
<path d="M3.29798 9.54936C3.13652 9.0533 3.04307 8.52176 3.04307 7.97257C3.04307 7.42332 3.13652 6.89184 3.28949 6.39577L3.28521 6.29013L0.894659 4.35498L0.816444 4.39376C0.29806 5.47449 0.000610352 6.68811 0.000610352 7.97257C0.000610352 9.25703 0.29806 10.4706 0.816444 11.5513L3.29798 9.54936Z" fill="#FBBC05"/>
<path d="M7.6495 3.08269C9.08572 3.08269 10.0545 3.72934 10.607 4.26974L12.7656 2.07286C11.4398 0.788397 9.7146 0 7.6495 0C4.65801 0 2.07447 1.78937 0.816711 4.39371L3.28976 6.39573C3.9102 4.47347 5.62688 3.08269 7.6495 3.08269Z" fill="#EB4335"/>
</g>
<defs>
<clipPath id="clip0_7623_4958">
<rect width="15" height="16" fill="white"/>
</clipPath>
</defs>
</svg>
